# xmcd
#
# Track frame offsets: 
#        150
#        35133
#        58661
#        83924
#        98593
#        118694
#        153994
#        184221
#        211521
#
# Disc length: 3020 seconds
#
# Revision: 1
# Processed by: cddbd v1.5.2PL0 Copyright (c) Steve Scherf et al.
# Submitted via: ExactAudioCopy v0.95b3
#
DISCID=700bca09
DTITLE=Sly and The Family Stone - The Woodstock Experience [CD1] Live
DTITLE=At Woodstock
DYEAR=2009
DGENRE=R&B
TTITLE0=M'Lady
TTITLE1=Sing A Simple Song
TTITLE2=You Can Make It If You Try
TTITLE3=Everyday People
TTITLE4=Dance To The Music
TTITLE5=Music Lover/Higher
TTITLE6=I Want To Take You Higher
TTITLE7=Love City
TTITLE8=Stand!
EXTD=
EXTT0=
EXTT1=
EXTT2=
EXTT3=
EXTT4=
EXTT5=
EXTT6=
EXTT7=
EXTT8=
PLAYORDER=
